<svg width="78" height="63" viewBox="0 0 78 63" fill="none" xmlns="http://www.w3.org/2000/svg">
<g clip-path="url(#clip0_561_194)">
<path d="M42.3711 34.5017C42.062 33.8687 41.7087 33.3093 41.3113 32.8383C39.6527 32.377 38.2346 31.6901 37.0521 30.7774C36.7429 30.5418 36.4534 30.2769 36.1786 29.9825C34.7949 29.6193 33.2394 29.4231 31.5171 29.3789C31.8311 29.8598 32.1893 30.3161 32.5917 30.7528C34.4416 32.7647 37.1404 34.0257 40.693 34.5311C39.8588 34.8599 39.1179 35.3653 38.4603 36.0523C37.0864 37.4655 36.3945 39.4331 36.3945 41.9553C36.3945 43.7512 36.9147 45.3018 37.9549 46.607C38.951 46.1948 39.8196 45.6354 40.5507 44.9289C40.6832 44.8013 40.8107 44.6688 40.9334 44.5363C40.6292 43.6629 40.4771 42.6471 40.4771 41.494C40.4771 38.9572 41.1395 37.0778 42.4644 35.8658C42.5723 35.7677 42.6803 35.6745 42.7931 35.5812C42.6754 35.2034 42.538 34.8452 42.3711 34.5017Z" fill="url(#paint0_linear_561_194)"/>
<path d="M59.9477 24.5765V25.2291L59.349 25.3371C58.6228 19.9346 56.3754 16.436 52.6069 14.8412V46.4907C52.6805 47.4721 53.0486 48.2768 53.7208 48.9098C54.3931 49.5428 55.1978 49.8617 56.1399 49.8617H56.7925V50.4064H47.6559C45.4821 50.4064 43.5832 50.0874 41.9639 49.4544C42.8079 49.0423 43.5979 48.5663 44.329 48.0167C45.4331 48.4534 46.7775 48.6693 48.3625 48.6693H49.0691V13.8647C47.8718 13.6832 46.4979 13.5949 44.9375 13.5949C43.2102 13.5949 41.6744 13.8255 40.325 14.2818C39.9619 13.8893 39.5497 13.5262 39.0983 13.1778C38.8333 12.9766 38.5634 12.7901 38.2788 12.6135C40.3103 11.9265 42.6214 11.5781 45.2122 11.5781C49.8149 11.5781 53.4264 12.7116 56.0369 14.9786C58.6473 17.2456 59.9526 20.4449 59.9526 24.5765H59.9477Z" fill="url(#paint1_linear_561_194)"/>
<path d="M48.1367 37.5003C48.0581 36.6121 47.8913 35.7682 47.6263 34.9732C47.5184 34.6543 47.4006 34.3452 47.2632 34.0409C47.1896 33.8741 47.1111 33.7122 47.0277 33.5502C46.8658 33.2264 46.6793 32.9173 46.483 32.613C46.169 32.1322 45.8108 31.6758 45.4084 31.2391C43.5585 29.2273 40.8597 27.9662 37.3071 27.4608C38.1413 27.1369 38.8823 26.6266 39.5398 25.9397C40.9137 24.5265 41.6056 22.5588 41.6056 20.0367C41.6056 18.2456 41.0855 16.6951 40.0452 15.3849C39.844 15.1298 39.6232 14.8844 39.3828 14.6489C39.1227 14.3937 38.8381 14.1484 38.529 13.9129C38.1021 13.589 37.6408 13.2946 37.155 13.0345C36.8017 12.8481 36.4288 12.6763 36.0412 12.5242C34.417 11.8912 32.5229 11.5723 30.3443 11.5723H21.2076V12.1169H21.8602C22.8024 12.1169 23.6071 12.4359 24.2793 13.0689C24.9516 13.7019 25.3196 14.5115 25.3932 15.488V47.1423C21.6247 45.5476 19.3774 42.049 18.6511 36.6465L18.0525 36.7544V37.4071C18.0525 41.5387 19.3577 44.7429 21.9682 47.0099C24.5787 49.2768 28.1852 50.4103 32.7928 50.4103C35.3836 50.4103 37.6948 50.0669 39.7262 49.375C40.109 49.2425 40.4819 49.1002 40.845 48.9432C41.7528 48.5555 42.5968 48.0943 43.377 47.5545C43.5683 47.422 43.7548 47.2846 43.9413 47.1423C44.0247 47.0736 44.113 47.0099 44.1964 46.9412C46.5714 45.0226 47.8864 42.5986 48.1367 39.674C48.1661 39.3257 48.1808 38.9675 48.1808 38.6043C48.1808 38.2412 48.1661 37.8585 48.1367 37.4954V37.5003ZM42.0079 44.7085C41.8019 44.9686 41.5761 45.2139 41.3357 45.4544C41.2915 45.5034 41.2425 45.5476 41.1934 45.5967C40.4476 46.3131 39.5889 46.8921 38.6124 47.3386C38.3082 47.476 37.999 47.5987 37.6752 47.7115C36.3258 48.1728 34.785 48.4034 33.0627 48.4034C31.5023 48.4034 30.1284 48.3102 28.9311 48.1335V13.3191H29.6377C31.2226 13.3191 32.5671 13.535 33.6711 13.9668C34.0097 14.0993 34.3287 14.2514 34.6231 14.4281C35.5014 14.9482 36.1835 15.6499 36.6594 16.5282C36.8165 16.8177 36.9538 17.122 37.0667 17.4507C37.3709 18.3242 37.523 19.3399 37.523 20.493C37.523 23.0348 36.8606 24.9092 35.5358 26.1212C35.4278 26.2193 35.3199 26.3175 35.2021 26.4058C34.9469 26.6168 34.682 26.8082 34.4072 26.9701C33.3375 27.6178 32.1255 27.9417 30.7761 27.9417H30.7319C30.8055 28.1085 30.884 28.2704 30.9674 28.4324C32.5426 28.4422 33.9852 28.5697 35.3002 28.82C35.7811 28.9132 36.2423 29.0212 36.684 29.1439C38.3425 29.6051 39.7606 30.2921 40.9432 31.2048C41.2523 31.4403 41.5418 31.7053 41.8166 31.9997C42.1306 32.3431 42.4201 32.7259 42.6851 33.1528C42.8716 33.4472 43.0384 33.7563 43.2003 34.0851C43.3426 34.3795 43.4702 34.6886 43.5782 35.0027C43.6861 35.302 43.7695 35.616 43.8431 35.935C44.0149 36.6808 44.0983 37.4758 44.0983 38.3247C44.0983 40.8468 43.4015 42.9764 42.003 44.6987L42.0079 44.7085Z" fill="url(#paint2_linear_561_194)"/>
<path d="M33.8969 23.6536C33.8969 24.5025 33.9804 25.2974 34.1521 26.0384C33.1756 26.6959 32.0667 27.0148 30.786 27.0148H30.3836C30.1186 26.2199 29.9469 25.3759 29.8684 24.4829C29.8389 24.1198 29.8242 23.7518 29.8242 23.3739C29.8242 22.9961 29.8389 22.6526 29.8684 22.3042C30.1235 19.3797 31.4386 16.9557 33.8086 15.0371C34.8145 15.5376 35.5408 16.2786 35.9922 17.2697C34.5937 18.997 33.8969 21.1217 33.8969 23.6438V23.6536Z" fill="url(#paint3_linear_561_194)"/>
<path d="M69.987 30.9928C69.9968 34.9919 69.2215 38.9959 67.6955 42.6957C66.93 44.5456 66.0026 46.3317 64.8985 48.005C63.7994 49.6782 62.5334 51.2484 61.1251 52.6812C58.3086 55.542 54.9425 57.8776 51.2328 59.4626C47.5281 61.0573 43.4996 61.9209 39.4416 61.9798C35.3885 62.0387 31.3059 61.3027 27.5178 59.7864C23.7297 58.2702 20.2311 56.0032 17.3115 53.1278C14.3919 50.2523 12.0268 46.8028 10.4369 43.0098C8.84709 39.2167 8.02764 35.1048 8.01782 30.9928C8.02764 26.8808 8.84709 22.7688 10.4369 18.9758C12.0218 15.1828 14.3919 11.7332 17.3066 8.85287C20.2262 5.97743 23.7297 3.71044 27.5178 2.19421C31.301 0.677981 35.3836 -0.0531458 39.4416 0.000830004C43.4996 0.0597127 47.5281 0.923326 51.2328 2.51807C54.9425 4.10299 58.3135 6.43868 61.1251 9.2994C63.9466 12.1601 66.1792 15.5802 67.6955 19.2849C69.2215 22.9847 69.9968 26.9888 69.987 30.9879V30.9928ZM69.987 30.9928C69.9723 26.9937 69.1774 22.9994 67.6317 19.3144C66.0909 15.6293 63.7847 12.273 60.9485 9.48095C58.1074 6.68893 54.7069 4.48573 51.0267 3.01366C47.3466 1.54159 43.3818 0.830095 39.4367 0.888978C35.4915 0.947861 31.5807 1.78694 27.984 3.33752C26.1831 4.11281 24.4657 5.05984 22.8514 6.1688C21.2419 7.27775 19.7453 8.54373 18.3763 9.92748C17.0073 11.321 15.7805 12.8422 14.7108 14.4713C13.6411 16.0954 12.7383 17.8325 11.9973 19.6235C10.5154 23.2203 9.76468 27.1016 9.77449 30.9879C9.72542 38.7702 12.8904 46.4937 18.3763 52.0532C21.1094 54.8354 24.3823 57.1024 27.984 58.648C31.5807 60.2035 35.4964 61.0377 39.4416 61.0966C43.3818 61.1555 47.3466 60.444 51.0317 58.9719C54.7118 57.4998 58.1123 55.2966 60.9534 52.5046C63.7896 49.7077 66.0909 46.3563 67.6317 42.6712C69.1774 38.9861 69.9723 34.9919 69.9821 30.9928H69.987Z" fill="url(#paint4_linear_561_194)"/>
</g>
<defs>
<linearGradient id="paint0_linear_561_194" x1="32.2678" y1="40.915" x2="40.8255" y2="32.3574" gradientUnits="userSpaceOnUse">
<stop stop-color="#9F5425"/>
<stop offset="1" stop-color="#FCCA76"/>
</linearGradient>
<linearGradient id="paint1_linear_561_194" x1="35.7763" y1="43.2669" x2="60.0654" y2="18.9777" gradientUnits="userSpaceOnUse">
<stop stop-color="#9F5425"/>
<stop offset="1" stop-color="#FCCA76"/>
</linearGradient>
<linearGradient id="paint2_linear_561_194" x1="18.4647" y1="43.5456" x2="43.3721" y2="18.6431" gradientUnits="userSpaceOnUse">
<stop stop-color="#9F5425"/>
<stop offset="1" stop-color="#FCCA76"/>
</linearGradient>
<linearGradient id="paint3_linear_561_194" x1="28.9115" y1="25.5575" x2="36.7969" y2="17.6721" gradientUnits="userSpaceOnUse">
<stop stop-color="#9F5425"/>
<stop offset="1" stop-color="#FCCA76"/>
</linearGradient>
<linearGradient id="paint4_linear_561_194" x1="8.01292" y1="30.9928" x2="70.8702" y2="30.9928" gradientUnits="userSpaceOnUse">
<stop stop-color="#C2924D"/>
<stop offset="1" stop-color="#FCCA76"/>
</linearGradient>
<clipPath id="clip0_561_194">
<rect width="78" height="63" fill="white"/>
</clipPath>
</defs>
</svg>
