<svg width="30" height="30" viewBox="0 0 30 30" fill="none" xmlns="http://www.w3.org/2000/svg">
<g clip-path="url(#clip0_194_1322)">
<path d="M17.1392 18.9789C17.1392 18.9789 17.1392 18.9789 17.1392 18.9789L19.4393 16.6711L27.9181 25.1775C27.7398 25.2231 27.5546 25.2478 27.3637 25.2478H2.63715C2.44626 25.2478 2.26093 25.223 2.0826 25.1775L10.5615 16.6711L12.8617 18.9789C14.0214 20.1426 16.0046 20.1175 17.1392 18.9789Z" stroke="#C9BEB1" stroke-width="0.6"/>
<path d="M2.08256 4.82345C2.26084 4.77789 2.44616 4.75313 2.63703 4.75313H27.3636C27.5545 4.75313 27.7397 4.77785 27.918 4.82338L18.6383 14.1341L18.6371 14.1348L18.6063 14.1656C18.6022 14.1697 18.5983 14.1738 18.5948 14.1778L15.47 17.313C15.47 17.313 15.4699 17.3131 15.4699 17.3131C15.3745 17.4084 15.2023 17.4749 15.0004 17.4749C14.7985 17.4749 14.6262 17.4084 14.5308 17.3131C14.5308 17.3131 14.5308 17.313 14.5308 17.313L11.4072 14.1791C11.4032 14.1746 11.399 14.1701 11.3945 14.1656C11.3905 14.1616 11.3866 14.1579 11.3827 14.1545L2.08256 4.82345Z" stroke="#C9BEB1" stroke-width="0.6"/>
<path d="M0.3 7.08914C0.3 6.87348 0.33239 6.66507 0.390996 6.46559L8.89682 14.9996L0.39094 23.533C0.332358 23.3336 0.3 23.1251 0.3 22.9095V7.08914Z" stroke="#C9BEB1" stroke-width="0.6"/>
<path d="M29.609 23.5333L21.1033 14.9997L29.609 6.46559C29.6676 6.66509 29.7 6.87352 29.7 7.08926V22.9096C29.7 23.1253 29.6676 23.3338 29.609 23.5333Z" stroke="#C9BEB1" stroke-width="0.6"/>
</g>
<defs>
<clipPath id="clip0_194_1322">
<rect width="30" height="30" fill="white"/>
</clipPath>
</defs>
</svg>
