<svg width="30" height="30" viewBox="0 0 30 30" fill="none" xmlns="http://www.w3.org/2000/svg">
<path d="M20.2156 18.776L20.2184 18.7769C21.6065 19.2356 23.0704 19.4687 24.5603 19.4687C25.4486 19.4687 26.1719 20.1919 26.172 21.0803V25.4431C26.172 26.3315 25.4487 27.0548 24.5603 27.0548C12.6437 27.0548 2.94844 17.3596 2.94844 5.4429C2.94844 4.55452 3.67171 3.83125 4.56008 3.83125H8.93517C9.82354 3.83125 10.5468 4.55451 10.5468 5.44295V5.44296C10.5468 6.93288 10.7803 8.39536 11.2404 9.78973C11.4253 10.3813 11.27 11.0076 10.8403 11.4367L10.8253 11.4516L10.8126 11.4686L8.84991 14.0775L8.73524 14.2299L8.82463 14.3984C10.4885 17.5349 12.4454 19.4909 15.6041 21.177L15.7732 21.2672L15.9261 21.1518L18.6049 19.1296L18.6231 19.1158L18.639 19.0995C18.7925 18.9418 19.0416 18.8086 19.3367 18.7425C19.6298 18.6768 19.9433 18.6831 20.2156 18.776Z" stroke="#C9BEB1" stroke-width="0.6"/>
</svg>
