<svg width="28" height="28" viewBox="0 0 28 28" fill="none" xmlns="http://www.w3.org/2000/svg">
<g clip-path="url(#clip0_1453_87)">
<path d="M14 0C21.7317 0 28 6.26828 28 14C28 21.7317 21.7317 28 14 28C6.26828 28 0 21.7317 0 14C0 6.26828 6.26828 0 14 0ZM11.906 20.6429V14.2696H11.0059C10.7324 14.2696 10.5109 14.0476 10.5109 13.7747V11.7567C10.5109 11.4849 10.7335 11.2623 11.0059 11.2623H11.906V9.63977C11.906 8.10578 13.1502 6.86219 14.6841 6.86219H16.9941C17.2676 6.86219 17.4891 7.08367 17.4891 7.35711V9.37453C17.4891 9.64797 17.2676 9.86945 16.9941 9.86945H15.627C15.4711 9.86945 15.3426 9.99797 15.3426 10.1538V11.2634L16.9641 11.2623C17.2375 11.2815 17.459 11.4658 17.459 11.7567C17.4109 12.4403 17.3441 13.131 17.2862 13.8157C17.2648 14.0711 17.0499 14.2696 16.7934 14.2696H15.3426V20.6429C15.3426 20.9147 15.1205 21.1373 14.8482 21.1373L12.4009 21.1378C12.128 21.1378 11.906 20.9158 11.906 20.6429ZM12.5524 20.4925H14.6962V13.6232H16.6545L16.7995 11.9071H14.6962V10.1538C14.6962 9.63977 15.1129 9.22305 15.627 9.22305H16.8427V7.50859H14.6841C13.5067 7.50859 12.5524 8.46289 12.5524 9.63977V11.9082H11.1573V13.6232H12.5524V20.4925ZM14 0.645859C6.62484 0.645859 0.645859 6.62484 0.645859 14C0.645859 21.3752 6.62484 27.3541 14 27.3541C21.3752 27.3541 27.3541 21.3752 27.3541 14C27.3541 6.62484 21.3752 0.645859 14 0.645859Z" fill="#C9BEB1"/>
</g>
<defs>
<clipPath id="clip0_1453_87">
<rect width="28" height="28" fill="white"/>
</clipPath>
</defs>
</svg>
