<svg width="28" height="28" viewBox="0 0 28 28" fill="none" xmlns="http://www.w3.org/2000/svg">
<path d="M14.0009 0.0078125C21.7299 0.0078125 27.996 6.27391 27.996 14.0029C27.996 21.7319 21.7299 27.998 14.0009 27.998C6.27195 27.998 0.00585938 21.7319 0.00585938 14.0029C0.00585938 6.27391 6.27195 0.0078125 14.0009 0.0078125ZM11.1545 7.42836C8.80344 7.53609 7.53359 8.8043 7.42695 11.1564C7.34055 13.0475 7.34055 14.9588 7.42695 16.8494C7.53359 19.2015 8.80344 20.4702 11.1545 20.5774C13.0455 20.6633 14.9569 20.6633 16.848 20.5774C19.2001 20.4697 20.4677 19.2015 20.5755 16.8494C20.6613 14.9583 20.6608 13.0475 20.5755 11.1564C20.4683 8.80812 19.1962 7.53555 16.848 7.42836C14.9569 7.3425 13.0455 7.3425 11.1545 7.42836ZM18.8588 10.3011C18.8588 10.9382 18.342 11.455 17.7044 11.455C17.0678 11.455 16.5488 10.936 16.5488 10.2995C16.5816 9.65141 17.0372 9.14391 17.7044 9.14391C18.318 9.14391 18.8473 9.67601 18.8588 10.3011ZM18.2157 10.2995C18.2157 10.0173 17.9866 9.78977 17.7044 9.78977C17.4096 9.78977 17.2078 10.014 17.1936 10.3005C17.1936 10.5844 17.4211 10.8091 17.7044 10.8091C17.9745 10.8091 18.2108 10.5784 18.2157 10.2995ZM14.0009 16.6383C12.5457 16.6383 11.3655 15.4587 11.3655 14.0029C11.3655 12.546 12.5441 11.3675 14.0009 11.3675C15.4567 11.3675 16.6369 12.5471 16.6369 14.0029C16.6369 15.4592 15.4573 16.6383 14.0009 16.6383ZM14.0004 15.9941C15.1335 15.9662 15.991 15.1568 15.991 14.0029C15.991 12.9042 15.1002 12.0134 14.0009 12.0134C12.9028 12.0134 12.0103 12.9048 12.0103 14.0029C12.0442 15.1141 12.8705 15.9941 14.0004 15.9941ZM10.7612 14.0029C10.7612 15.7928 12.2105 17.2437 14.0009 17.2437C15.7898 17.2437 17.2406 15.7912 17.2406 14.0029C17.2406 12.2146 15.7898 10.7621 14.0009 10.7621C12.1973 10.7977 10.7612 12.1812 10.7612 14.0029ZM14.0009 10.1184C16.1474 10.1184 17.887 11.8559 17.887 14.0029C17.887 16.1505 16.1485 17.8884 14.0009 17.8884C11.8555 17.8884 10.1154 16.1488 10.1154 14.0029C10.1154 11.8564 11.855 10.1184 14.0009 10.1184ZM11.1271 6.78523C13.0412 6.69828 14.9612 6.69828 16.8753 6.78523C19.5643 6.90773 21.0961 8.43953 21.2191 11.1285C21.3055 13.0431 21.3055 14.9627 21.2191 16.8773C21.0955 19.5701 19.5687 21.0975 16.8753 21.2205C14.9612 21.3075 13.0412 21.3075 11.1271 21.2205C8.43539 21.098 6.90578 19.5695 6.78383 16.8773C6.69633 14.9632 6.69633 13.0431 6.78383 11.1285C6.90578 8.43625 8.43539 6.90828 11.1271 6.78523ZM16.8184 8.03375C18.8577 8.12672 19.8777 9.14609 19.9701 11.1854C20.0559 13.0617 20.0559 14.9441 19.9701 16.8204C19.8777 18.8635 18.8572 19.8791 16.8184 19.972C14.9421 20.0573 13.0598 20.0573 11.184 19.972C9.14469 19.8791 8.12531 18.8635 8.03234 16.8204C7.94648 14.9441 7.94648 13.0617 8.03234 11.1854C8.12477 9.14609 9.14086 8.12727 11.184 8.03375C13.0598 7.94844 14.9421 7.94844 16.8184 8.03375ZM16.7905 8.67742C14.9377 8.59266 13.0647 8.59266 11.2113 8.67742C9.50727 8.75508 8.75312 9.5125 8.67547 11.2133C8.5907 13.0661 8.5907 14.9397 8.67547 16.7925C8.75312 18.4971 9.51055 19.2512 11.2113 19.3284C13.0647 19.4126 14.9377 19.4126 16.7905 19.3284C18.4913 19.2512 19.2498 18.4971 19.3264 16.7925C19.4112 14.9397 19.4117 13.0661 19.3264 11.2133C19.2498 9.51523 18.488 8.75453 16.7905 8.67742ZM14.0009 0.654219C6.62852 0.654219 0.651719 6.63047 0.651719 14.0029C0.651719 21.3753 6.62852 27.3516 14.0009 27.3516C21.3734 27.3516 27.3502 21.3753 27.3502 14.0029C27.3502 6.63047 21.3734 0.654219 14.0009 0.654219Z" fill="#C9BEB1"/>
</svg>
